<mxfile host="app.diagrams.net" modified="2023-11-25T16:39:46.651Z" agent="Mozilla/5.0 (Windows NT 10.0; Win64; x64) AppleWebKit/537.36 (KHTML, like Gecko) Chrome/119.0.0.0 Safari/537.36" etag="KP3WR2RcJ9PxllNwSiMW" version="22.1.4" type="device">
  <diagram name="Page-1" id="58cdce13-f638-feb5-8d6f-7d28b1aa9fa0">
    <mxGraphModel dx="453" dy="265" grid="1" gridSize="10" guides="1" tooltips="1" connect="1" arrows="1" fold="1" page="1" pageScale="1" pageWidth="1100" pageHeight="850" background="none" math="0" shadow="0">
      <root>
        <mxCell id="0" />
        <mxCell id="1" parent="0" />
        <mxCell id="382b91b5511bd0f7-1" value="" style="ellipse;html=1;shape=startState;fillColor=#000000;strokeColor=#ff0000;rounded=1;shadow=0;comic=0;labelBackgroundColor=none;fontFamily=Verdana;fontSize=12;fontColor=#000000;align=center;direction=south;" parent="1" vertex="1">
          <mxGeometry x="80" y="135" width="30" height="30" as="geometry" />
        </mxCell>
        <mxCell id="2a3bc250acf0617d-9" style="edgeStyle=orthogonalEdgeStyle;html=1;labelBackgroundColor=none;endArrow=open;endSize=8;strokeColor=#ff0000;fontFamily=Verdana;fontSize=12;align=left;" parent="1" source="382b91b5511bd0f7-1" edge="1">
          <mxGeometry relative="1" as="geometry">
            <mxPoint x="240" y="150" as="targetPoint" />
          </mxGeometry>
        </mxCell>
        <mxCell id="JNiuf-uxCr4nQNfWEEsA-2" value="Creazione" style="edgeLabel;html=1;align=center;verticalAlign=middle;resizable=0;points=[];" parent="2a3bc250acf0617d-9" vertex="1" connectable="0">
          <mxGeometry y="1" relative="1" as="geometry">
            <mxPoint as="offset" />
          </mxGeometry>
        </mxCell>
        <mxCell id="JNiuf-uxCr4nQNfWEEsA-1" value="" style="ellipse;html=1;shape=endState;fillColor=#000000;strokeColor=#ff0000;" parent="1" vertex="1">
          <mxGeometry x="290" y="670" width="30" height="30" as="geometry" />
        </mxCell>
        <mxCell id="3IGrC6L565T3kfFnIpVN-1" value="Cambiamento Parametri" style="rounded=1;whiteSpace=wrap;html=1;arcSize=40;fontColor=#000000;fillColor=#ffffc0;strokeColor=#ff0000;" vertex="1" parent="1">
          <mxGeometry x="540" y="270" width="130" height="60" as="geometry" />
        </mxCell>
        <mxCell id="3IGrC6L565T3kfFnIpVN-3" value="Offerta in Compilazione" style="rounded=1;whiteSpace=wrap;html=1;arcSize=40;fontColor=#000000;fillColor=#ffffc0;strokeColor=#ff0000;" vertex="1" parent="1">
          <mxGeometry x="240" y="120" width="130" height="60" as="geometry" />
        </mxCell>
        <mxCell id="3IGrC6L565T3kfFnIpVN-7" value="Offerta Attiva" style="rounded=1;whiteSpace=wrap;html=1;arcSize=40;fontColor=#000000;fillColor=#ffffc0;strokeColor=#ff0000;" vertex="1" parent="1">
          <mxGeometry x="240" y="280" width="130" height="60" as="geometry" />
        </mxCell>
        <mxCell id="3IGrC6L565T3kfFnIpVN-8" value="" style="edgeStyle=orthogonalEdgeStyle;html=1;verticalAlign=bottom;endArrow=open;endSize=8;strokeColor=#ff0000;rounded=0;" edge="1" source="3IGrC6L565T3kfFnIpVN-7" parent="1">
          <mxGeometry relative="1" as="geometry">
            <mxPoint x="305" y="410" as="targetPoint" />
          </mxGeometry>
        </mxCell>
        <mxCell id="3IGrC6L565T3kfFnIpVN-14" value="Chiusura Offerta" style="edgeLabel;html=1;align=center;verticalAlign=middle;resizable=0;points=[];" vertex="1" connectable="0" parent="3IGrC6L565T3kfFnIpVN-8">
          <mxGeometry x="-0.2546" relative="1" as="geometry">
            <mxPoint as="offset" />
          </mxGeometry>
        </mxCell>
        <mxCell id="3IGrC6L565T3kfFnIpVN-9" value="" style="edgeStyle=orthogonalEdgeStyle;html=1;verticalAlign=bottom;endArrow=open;endSize=8;strokeColor=#ff0000;rounded=0;exitX=0.5;exitY=1;exitDx=0;exitDy=0;" edge="1" parent="1" source="3IGrC6L565T3kfFnIpVN-3">
          <mxGeometry relative="1" as="geometry">
            <mxPoint x="305" y="280" as="targetPoint" />
            <mxPoint x="290" y="360" as="sourcePoint" />
          </mxGeometry>
        </mxCell>
        <mxCell id="3IGrC6L565T3kfFnIpVN-10" value="Avvia Offerta" style="edgeLabel;html=1;align=center;verticalAlign=middle;resizable=0;points=[];" vertex="1" connectable="0" parent="3IGrC6L565T3kfFnIpVN-9">
          <mxGeometry x="-0.0981" y="1" relative="1" as="geometry">
            <mxPoint as="offset" />
          </mxGeometry>
        </mxCell>
        <mxCell id="3IGrC6L565T3kfFnIpVN-11" value="" style="edgeStyle=orthogonalEdgeStyle;html=1;verticalAlign=bottom;endArrow=open;endSize=8;strokeColor=#ff0000;rounded=0;exitX=-0.003;exitY=0.663;exitDx=0;exitDy=0;exitPerimeter=0;entryX=1;entryY=0.5;entryDx=0;entryDy=0;" edge="1" parent="1" source="3IGrC6L565T3kfFnIpVN-1" target="3IGrC6L565T3kfFnIpVN-7">
          <mxGeometry relative="1" as="geometry">
            <mxPoint x="315" y="420" as="targetPoint" />
            <mxPoint x="315" y="350" as="sourcePoint" />
          </mxGeometry>
        </mxCell>
        <mxCell id="3IGrC6L565T3kfFnIpVN-12" value="" style="edgeStyle=orthogonalEdgeStyle;html=1;verticalAlign=bottom;endArrow=open;endSize=8;strokeColor=#ff0000;rounded=0;exitX=0.997;exitY=0.323;exitDx=0;exitDy=0;entryX=0;entryY=0.5;entryDx=0;entryDy=0;exitPerimeter=0;" edge="1" parent="1" source="3IGrC6L565T3kfFnIpVN-7" target="3IGrC6L565T3kfFnIpVN-1">
          <mxGeometry relative="1" as="geometry">
            <mxPoint x="325" y="430" as="targetPoint" />
            <mxPoint x="325" y="360" as="sourcePoint" />
          </mxGeometry>
        </mxCell>
        <mxCell id="3IGrC6L565T3kfFnIpVN-13" value="Modifica Offerta" style="edgeLabel;html=1;align=center;verticalAlign=middle;resizable=0;points=[];" vertex="1" connectable="0" parent="3IGrC6L565T3kfFnIpVN-12">
          <mxGeometry x="-0.0276" y="1" relative="1" as="geometry">
            <mxPoint x="1" as="offset" />
          </mxGeometry>
        </mxCell>
        <mxCell id="3IGrC6L565T3kfFnIpVN-15" value="Offerta Chiusa" style="rounded=1;whiteSpace=wrap;html=1;arcSize=40;fontColor=#000000;fillColor=#ffffc0;strokeColor=#ff0000;" vertex="1" parent="1">
          <mxGeometry x="245" y="410" width="120" height="60" as="geometry" />
        </mxCell>
        <mxCell id="3IGrC6L565T3kfFnIpVN-16" value="" style="edgeStyle=orthogonalEdgeStyle;html=1;verticalAlign=bottom;endArrow=open;endSize=8;strokeColor=#ff0000;rounded=0;entryX=0.5;entryY=0;entryDx=0;entryDy=0;" edge="1" parent="1" target="3IGrC6L565T3kfFnIpVN-20">
          <mxGeometry relative="1" as="geometry">
            <mxPoint x="305" y="510" as="targetPoint" />
            <mxPoint x="305" y="470" as="sourcePoint" />
            <Array as="points">
              <mxPoint x="305" y="500" />
              <mxPoint x="305" y="500" />
            </Array>
          </mxGeometry>
        </mxCell>
        <mxCell id="3IGrC6L565T3kfFnIpVN-22" value="Terminazione Offerta" style="edgeLabel;html=1;align=center;verticalAlign=middle;resizable=0;points=[];" vertex="1" connectable="0" parent="3IGrC6L565T3kfFnIpVN-16">
          <mxGeometry x="-0.0244" relative="1" as="geometry">
            <mxPoint y="-4" as="offset" />
          </mxGeometry>
        </mxCell>
        <mxCell id="3IGrC6L565T3kfFnIpVN-17" value="" style="edgeStyle=orthogonalEdgeStyle;html=1;verticalAlign=bottom;endArrow=open;endSize=8;strokeColor=#ff0000;rounded=0;exitX=0;exitY=0.5;exitDx=0;exitDy=0;entryX=-0.016;entryY=0.491;entryDx=0;entryDy=0;entryPerimeter=0;" edge="1" parent="1" source="3IGrC6L565T3kfFnIpVN-15" target="3IGrC6L565T3kfFnIpVN-7">
          <mxGeometry relative="1" as="geometry">
            <mxPoint x="315" y="520" as="targetPoint" />
            <mxPoint x="315" y="480" as="sourcePoint" />
            <Array as="points">
              <mxPoint x="160" y="440" />
              <mxPoint x="160" y="310" />
            </Array>
          </mxGeometry>
        </mxCell>
        <mxCell id="3IGrC6L565T3kfFnIpVN-19" value="Riavvia Offerta" style="edgeLabel;html=1;align=center;verticalAlign=middle;resizable=0;points=[];" vertex="1" connectable="0" parent="3IGrC6L565T3kfFnIpVN-17">
          <mxGeometry x="0.0986" y="-1" relative="1" as="geometry">
            <mxPoint as="offset" />
          </mxGeometry>
        </mxCell>
        <mxCell id="3IGrC6L565T3kfFnIpVN-20" value="Offerta Archiviata" style="rounded=1;whiteSpace=wrap;html=1;arcSize=40;fontColor=#000000;fillColor=#ffffc0;strokeColor=#ff0000;" vertex="1" parent="1">
          <mxGeometry x="245" y="540" width="120" height="60" as="geometry" />
        </mxCell>
        <mxCell id="3IGrC6L565T3kfFnIpVN-23" value="State Chart Offerta" style="text;html=1;align=center;verticalAlign=middle;resizable=0;points=[];autosize=1;strokeColor=none;fillColor=none;" vertex="1" parent="1">
          <mxGeometry x="35" y="28" width="120" height="30" as="geometry" />
        </mxCell>
        <mxCell id="3IGrC6L565T3kfFnIpVN-24" value="" style="edgeStyle=orthogonalEdgeStyle;html=1;verticalAlign=bottom;endArrow=open;endSize=8;strokeColor=#ff0000;rounded=0;entryX=0.5;entryY=1;entryDx=0;entryDy=0;exitX=1;exitY=0.5;exitDx=0;exitDy=0;" edge="1" parent="1" source="3IGrC6L565T3kfFnIpVN-15" target="3IGrC6L565T3kfFnIpVN-1">
          <mxGeometry relative="1" as="geometry">
            <mxPoint x="550" y="310" as="targetPoint" />
            <mxPoint x="370" y="440" as="sourcePoint" />
          </mxGeometry>
        </mxCell>
        <mxCell id="3IGrC6L565T3kfFnIpVN-25" value="Modifica Offerta" style="edgeLabel;html=1;align=center;verticalAlign=middle;resizable=0;points=[];" vertex="1" connectable="0" parent="3IGrC6L565T3kfFnIpVN-24">
          <mxGeometry x="-0.0276" y="1" relative="1" as="geometry">
            <mxPoint x="1" as="offset" />
          </mxGeometry>
        </mxCell>
        <mxCell id="3IGrC6L565T3kfFnIpVN-26" value="" style="edgeStyle=orthogonalEdgeStyle;html=1;verticalAlign=bottom;endArrow=open;endSize=8;strokeColor=#ff0000;rounded=0;exitX=0.44;exitY=1.007;exitDx=0;exitDy=0;exitPerimeter=0;entryX=1.002;entryY=0.387;entryDx=0;entryDy=0;entryPerimeter=0;" edge="1" parent="1" source="3IGrC6L565T3kfFnIpVN-1" target="3IGrC6L565T3kfFnIpVN-15">
          <mxGeometry relative="1" as="geometry">
            <mxPoint x="380" y="320" as="targetPoint" />
            <mxPoint x="550" y="320" as="sourcePoint" />
          </mxGeometry>
        </mxCell>
        <mxCell id="3IGrC6L565T3kfFnIpVN-27" value="" style="edgeStyle=orthogonalEdgeStyle;html=1;verticalAlign=bottom;endArrow=open;endSize=8;strokeColor=#ff0000;rounded=0;entryX=0.5;entryY=0;entryDx=0;entryDy=0;exitX=0.5;exitY=1;exitDx=0;exitDy=0;" edge="1" parent="1" target="JNiuf-uxCr4nQNfWEEsA-1">
          <mxGeometry relative="1" as="geometry">
            <mxPoint x="310" y="680" as="targetPoint" />
            <mxPoint x="300" y="600" as="sourcePoint" />
            <Array as="points">
              <mxPoint x="305" y="600" />
            </Array>
          </mxGeometry>
        </mxCell>
      </root>
    </mxGraphModel>
  </diagram>
</mxfile>
